{"title":"Geordie Shore Complete Season 9 (2014) 1080P WEB-DL","uid":11710590,"size":14415469778,"categoryP":"video","categoryS":"hd___tv_shows","magnet":"?xt=urn:btih:036f11c8513ace076099b9168eba9824baf7514a&amp;dn=Geordie+Shore+Complete+Season+9+%282014%29+1080P+WEB-DL&amp;tr=udp%3A%2F%2Ftracker.openbittorrent.com%3A80&amp;tr=udp%3A%2F%2Fopen.demonii.com%3A1337&amp;tr=udp%3A%2F%2Ftracker.coppersurfer.tk%3A6969&amp;tr=udp%3A%2F%2Fexodus.desync.com%3A6969","seeders":5,"leechers":5,"uploader":"jmanwf","files":19,"time":1424322765,"description":"Get ready for more mortal madness! The gang are back in the 'toon and this time there's a twist. She's long been revered as Queen of the one-liners but for this season of Geordie Shore, Vicky will officially be crowned Queen out the house! Her house. Her rules. God save the Geordies!\n\n\nSource: https://itunes.apple.com/au/...e-shore-season-9/id927980752\n\n\nALL 8 Episodes of Season 9\n\n\nALL in MP4\n\n\n\nVideo\nID : 2\nFormat : AVC\nFormat/Info : Advanced Video Codec\nFormat profile : &lt;a class=&quot;__cf_email__&quot; href=&quot;/cdn-cgi/l/email-protection&quot; data-cfemail=&quot;eca4858b84aca0d8c2dc&quot;&gt;[email&amp;#160;protected]&lt;/a&gt;&lt;script cf-hash='f9e31' type=&quot;text/javascript&quot;&gt;\n/* &lt;![CDATA[ */!function(){try{var t=&quot;currentScript&quot;in document?document.currentScript:function(){for(var t=document.getElementsByTagName(&quot;script&quot;),e=t.length;e--;)if(t[e].getAttribute(&quot;cf-hash&quot;))return t[e]}();if(t&amp;&amp;t.previousSibling){var e,r,n,i,c=t.previousSibling,a=c.getAttribute(&quot;data-cfemail&quot;);if(a){for(e=&quot;&quot;,r=parseInt(a.substr(0,2),16),n=2;a.length-n;n+=2)i=parseInt(a.substr(n,2),16)^r,e+=String.fromCharCode(i);e=document.createTextNode(e),c.parentNode.replaceChild(e,c)}}}catch(u){}}();/* ]]&gt; */&lt;/script&gt;\nFormat settings, CABAC : Yes\nFormat settings, ReFrames : 4 frames\nCodec ID : avc1\nCodec ID/Info : Advanced Video Coding\nDuration : 42mn 40s\nBit rate : 4 896 Kbps\nWidth : 1 920 pixels\nHeight : 1 080 pixels\nDisplay aspect ratio : 16:9\nFrame rate mode : Constant\nFrame rate : 25.000 fps\nColor space : YUV\nChroma subsampling : 4:2:0\nBit depth : 8 bits\nScan type : Progressive\nBits/(Pixel*Frame) : 0.094\nStream size : 1.46 GiB (97%)\nLanguage : English\nEncoded date : UTC 2014-12-17 07:03:48\nTagged date : UTC 2014-12-17 07:06:37\nColor primaries : BT.709\nTransfer characteristics : BT.709\nMatrix coefficients : BT.709\nColor range : Limited\n\nAudio\nID : 1\nFormat : AAC\nFormat/Info : Advanced Audio Codec\nFormat profile : LC\nCodec ID : 40\nDuration : 42mn 40s\nBit rate mode : Variable\nBit rate : 127 Kbps\nMaximum bit rate : 198 Kbps\nChannel(s) : 2 channels\nChannel positions : Front: L R\nSampling rate : 48.0 KHz\nCompression mode : Lossy\nStream size : 38.6 MiB (3%)\nLanguage : English\nEncoded date : UTC 2014-12-17 07:03:48\nTagged date : UTC 2014-12-17 07:06:37","torrent":{"xt":"urn:btih:036f11c8513ace076099b9168eba9824baf7514a","amp;dn":"Geordie+Shore+Complete+Season+9+%282014%29+1080P+WEB-DL","amp;tr":["udp%3A%2F%2Ftracker.openbittorrent.com%3A80","udp%3A%2F%2Fopen.demonii.com%3A1337","udp%3A%2F%2Ftracker.coppersurfer.tk%3A6969","udp%3A%2F%2Fexodus.desync.com%3A6969"],"infoHash":"036f11c8513ace076099b9168eba9824baf7514a","infoHashBuffer":{"type":"Buffer","data":[3,111,17,200,81,58,206,7,96,153,185,22,142,186,152,36,186,247,81,74]},"announce":[],"urlList":[]}}